<?xml version="1.0" standalone="no"?>
<!DOCTYPE svg PUBLIC "-//W3C//DTD SVG 20010904//EN"
 "http://www.w3.org/TR/2001/REC-SVG-20010904/DTD/svg10.dtd">
<svg version="1.0" xmlns="http://www.w3.org/2000/svg"
 width="1024.000000pt" height="1024.000000pt" viewBox="0 0 1024.000000 1024.000000"
 preserveAspectRatio="xMidYMid meet">

<g transform="translate(0.000000,1024.000000) scale(0.100000,-0.100000)"
fill="#000000" stroke="none">
<path d="M6953 9587 c-21 -19 -74 -61 -118 -95 -213 -164 -373 -310 -500 -457
-124 -144 -99 -133 -201 -92 -181 73 -500 146 -719 167 -179 16 -470 12 -636
-10 -158 -20 -235 -36 -374 -77 -216 -62 -579 -223 -505 -223 6 0 10 5 10 10
0 6 10 10 23 10 20 -1 21 -2 5 -14 -10 -7 -18 -19 -18 -26 0 -7 -11 -25 -25
-42 -30 -35 -31 -48 -6 -55 20 -5 45 -49 36 -64 -8 -12 2 -11 27 2 11 6 22 9
24 6 3 -2 -54 -39 -125 -81 -188 -111 -322 -210 -436 -320 -55 -53 -95 -96
-90 -95 25 3 34 -3 43 -30 7 -20 7 -33 -1 -42 -15 -16 19 8 48 34 125 115 445
342 572 405 71 36 288 132 363 161 78 31 308 88 420 105 208 31 515 28 753
-10 93 -14 416 -90 426 -99 2 -3 -13 -23 -33 -45 -20 -23 -41 -52 -46 -66 -11
-29 -12 -29 -83 -5 -31 11 -112 29 -179 41 -132 22 -408 42 -421 30 -4 -4 -6
-54 -5 -111 l3 -104 85 -8 c47 -4 150 -17 230 -28 l145 -21 83 86 c81 84 102
99 102 74 0 -10 -143 -215 -165 -236 -2 -2 -27 4 -56 12 -110 33 -293 49 -499
43 -451 -12 -802 -130 -1185 -396 -313 -217 -626 -639 -760 -1021 -75 -216
-108 -420 -108 -665 -1 -265 36 -454 140 -730 139 -370 410 -732 677 -907 33
-21 61 -40 63 -42 11 -10 -211 -376 -228 -376 -3 0 -13 7 -20 16 -7 9 -38 32
-69 51 -67 43 -385 361 -494 495 -261 320 -411 650 -486 1068 -27 151 -43 491
-29 620 31 287 98 545 212 819 31 72 34 87 24 115 -10 28 -33 55 -48 56 -9 0
-122 -233 -159 -325 -15 -38 -38 -105 -50 -148 -26 -88 -41 -102 -106 -98 -59
3 -124 -16 -125 -37 -1 -11 -3 -8 -8 7 -6 21 -9 17 -23 -30 -10 -30 -27 -119
-40 -199 -18 -120 -22 -185 -22 -375 0 -233 6 -291 54 -560 73 -413 286 -865
578 -1229 128 -159 444 -456 579 -542 l51 -34 -40 -77 c-22 -43 -58 -107 -78
-143 -51 -88 -225 -436 -240 -481 -27 -75 17 -90 110 -37 30 17 77 43 103 58
85 48 313 237 398 331 46 50 96 100 111 111 28 19 28 19 58 -2 45 -32 101 -54
265 -105 282 -87 593 -145 784 -145 l59 0 4 78 c2 42 2 82 0 89 -5 16 -49 28
-147 43 -44 6 -115 21 -158 32 -119 31 -86 43 82 28 131 -12 224 -10 238 4 3
3 -2 15 -12 26 -10 11 -16 22 -14 23 2 2 20 11 39 20 l35 17 -52 0 c-111 0
-555 75 -686 115 -68 21 -167 66 -167 77 0 11 137 181 218 270 32 35 65 74 74
87 l16 22 42 -21 c24 -12 93 -32 154 -45 163 -35 403 -58 369 -37 -18 11 28
59 97 101 30 19 57 36 60 40 10 12 110 61 125 61 8 0 34 7 58 15 24 8 64 17
88 20 24 3 52 8 61 11 47 14 338 -53 338 -78 0 -5 -6 -6 -12 -2 -10 5 -10 4
-2 -5 27 -29 331 128 504 260 148 114 324 292 444 450 190 252 321 595 372
979 27 204 17 376 -38 630 -53 249 -184 544 -338 762 -89 125 -307 350 -447
461 -57 45 -103 86 -103 93 0 6 25 57 55 113 31 56 60 114 66 129 13 35 82
142 91 142 4 0 22 -12 40 -28 18 -15 78 -61 133 -102 168 -126 408 -374 536
-555 61 -86 181 -297 215 -375 17 -41 43 -100 57 -130 37 -83 81 -227 121
-400 37 -162 52 -274 58 -425 l3 -90 -55 -7 c-32 -4 -60 -2 -67 4 -6 5 -59 10
-117 11 -106 2 -106 2 -106 -22 l0 -24 123 5 c67 3 145 3 172 1 l50 -5 -6
-162 c-19 -488 -189 -943 -497 -1331 -136 -170 -291 -320 -507 -490 -196 -154
-405 -271 -675 -378 -112 -45 -402 -127 -447 -127 -13 0 -23 -3 -23 -7 0 -5
27 -8 61 -8 59 1 84 -10 59 -25 -10 -6 -9 -9 1 -13 10 -4 10 -6 -2 -6 -9 -1
-20 -8 -23 -17 -7 -18 -1 -17 163 22 220 54 518 173 689 276 34 21 68 38 75
38 7 0 19 6 25 12 7 7 17 13 22 13 6 0 10 4 10 8 -1 8 109 97 119 97 3 0 24
17 47 37 22 21 95 84 162 141 66 56 147 127 178 157 31 30 59 55 61 55 13 0
-68 -88 -164 -176 -250 -232 -479 -398 -703 -510 -106 -53 -297 -134 -315
-134 -3 0 -42 -14 -85 -31 -62 -23 -80 -35 -80 -50 0 -10 5 -19 10 -19 6 0 10
-13 10 -30 0 -16 5 -30 10 -30 11 0 59 -50 60 -62 0 -4 -8 -9 -17 -11 -10 -2
-2 -2 17 0 61 8 290 88 422 148 222 100 517 289 722 463 120 101 361 364 450
491 84 120 232 359 247 400 6 14 26 58 44 96 183 376 282 973 235 1413 -11
100 -14 113 -55 322 -91 453 -329 933 -651 1309 -165 193 -425 420 -657 572
-5 4 35 86 91 185 175 313 292 586 292 683 0 37 -23 71 -48 71 -7 0 -29 -15
-49 -33z m-243 -474 c-56 -108 -113 -215 -127 -236 -22 -35 -131 -229 -276
-492 -53 -96 -150 -278 -304 -570 -53 -99 -121 -225 -153 -280 -32 -55 -128
-236 -214 -402 -85 -167 -167 -320 -180 -342 -14 -22 -37 -67 -51 -102 l-25
-62 415 7 c337 5 415 4 415 -7 0 -7 -24 -42 -53 -77 -29 -36 -118 -150 -197
-255 -163 -216 -227 -296 -355 -445 -50 -58 -173 -206 -275 -330 -234 -286
-367 -441 -659 -769 -130 -145 -263 -298 -297 -340 -33 -42 -92 -110 -130
-151 -38 -41 -105 -117 -148 -168 -43 -51 -133 -150 -200 -220 -66 -70 -170
-182 -230 -249 -99 -111 -152 -161 -161 -151 -2 2 29 54 68 115 40 62 104 170
142 239 75 136 151 266 317 544 25 41 112 190 193 330 163 280 345 580 465
765 43 66 104 167 137 225 33 58 89 151 123 208 34 57 61 105 58 107 -10 10
-376 15 -568 7 -118 -4 -218 -5 -223 -2 -7 6 5 28 107 180 74 113 159 233 381
540 102 140 232 323 291 405 95 134 287 395 413 560 25 33 97 121 161 196 217
255 275 324 389 464 142 173 278 332 347 405 29 30 80 89 114 130 91 109 376
420 387 420 2 0 -41 -89 -97 -197z m-2570 -417 c0 -2 -13 -9 -30 -15 -35 -12
-41 -5 -7 9 25 10 37 12 37 6z m-770 -530 c0 -2 -8 -10 -17 -17 -16 -13 -17
-12 -4 4 13 16 21 21 21 13z m1869 -18 c135 1 265 5 287 8 42 6 66 -7 41 -23
-7 -4 -26 -26 -42 -48 -44 -60 -174 -213 -189 -222 -7 -5 -57 -75 -112 -157
-54 -82 -117 -170 -140 -195 -22 -25 -54 -67 -72 -92 -30 -45 -32 -46 -117
-63 -115 -22 -255 -81 -348 -145 -88 -61 -254 -229 -311 -315 -143 -216 -206
-420 -206 -670 0 -129 -11 -159 -84 -249 -59 -72 -99 -144 -86 -152 5 -3 37
-4 70 -1 33 4 86 8 119 11 l58 6 27 -78 c50 -141 147 -290 233 -359 26 -21 52
-41 56 -45 11 -9 -8 -46 -95 -187 l-70 -113 -61 53 c-34 29 -80 72 -102 96
l-41 45 -92 -43 c-51 -24 -94 -41 -96 -39 -29 30 -246 372 -246 389 0 4 15 13
33 21 34 13 75 49 57 49 -7 0 -6 5 2 14 8 8 19 11 27 6 13 -7 71 6 71 15 0 2
-13 43 -29 92 -16 48 -33 109 -36 135 l-7 46 -71 6 c-40 4 -89 9 -109 12 -34
5 -38 3 -38 -15 0 -17 -6 -21 -35 -21 -19 0 -35 -4 -35 -10 0 -5 -8 -10 -17
-10 -19 -1 -73 -65 -73 -87 0 -7 -7 -13 -15 -13 -8 0 -15 -6 -16 -12 0 -9 -2
-9 -6 1 -5 11 -7 11 -14 0 -7 -12 -12 -12 -31 0 -18 10 -20 10 -10 0 6 -7 12
-24 12 -38 -1 -49 -19 3 -47 131 -23 108 -26 147 -27 318 -1 207 13 309 55
392 11 21 19 42 19 48 0 6 11 26 24 43 16 21 27 52 31 92 4 33 12 68 16 77 5
10 10 37 11 62 1 24 6 42 10 40 4 -3 8 9 8 26 0 18 4 29 10 25 6 -3 10 3 10
15 0 12 4 19 9 16 12 -8 36 53 33 84 -1 23 -1 23 7 5 9 -19 10 -19 10 2 1 12
6 23 12 25 8 3 10 17 5 43 l-8 38 -19 -29 c-10 -16 -19 -24 -19 -19 0 6 11 24
25 40 14 17 25 26 24 20 -3 -22 2 -35 12 -35 5 0 7 5 4 10 -5 9 7 14 27 11 3
0 9 13 13 29 4 17 11 30 16 30 5 0 9 7 9 16 0 8 3 13 8 11 4 -3 8 17 9 43 1
52 33 113 77 147 14 11 23 22 21 25 -9 9 66 78 77 72 6 -4 8 -3 5 3 -7 11 25
44 61 62 12 7 20 15 18 20 -3 4 5 14 16 22 12 8 35 25 52 39 49 39 94 70 104
70 5 0 15 7 22 15 7 8 18 14 24 13 18 -4 76 23 70 33 -3 5 5 9 18 10 13 0 17
3 11 6 -20 7 -15 23 6 23 11 0 21 3 23 8 7 17 79 45 89 35 17 -17 105 19 93
39 -4 6 5 9 22 8 54 -4 63 -1 59 19 -3 17 4 21 53 26 31 3 75 10 97 15 54 12
181 36 292 56 59 10 91 20 86 27 -4 6 -1 7 7 2 7 -5 124 -7 259 -7z m1283
-494 c99 -93 204 -219 288 -346 112 -168 210 -376 210 -443 0 -14 5 -25 10
-25 6 0 10 -7 10 -15 0 -8 -9 -15 -20 -15 -11 0 -20 5 -20 10 0 6 -7 10 -15
10 -8 0 -15 -7 -15 -15 0 -8 -11 -17 -25 -21 -18 -4 -26 -15 -31 -41 -4 -19
-16 -43 -27 -54 -21 -19 -21 -20 -3 -52 31 -58 -9 0 -143 203 -70 107 -147
215 -170 240 -23 25 -49 59 -58 75 -10 18 -18 25 -21 17 -2 -7 25 -65 61 -130
79 -143 117 -218 117 -232 0 -6 -31 -25 -70 -42 -38 -17 -70 -37 -70 -44 0 -7
11 -59 24 -116 14 -57 28 -124 32 -150 l6 -48 91 0 90 0 -6 -107 c-4 -58 -7
-164 -7 -235 l0 -128 -105 0 -105 0 -5 -27 c-3 -16 -19 -80 -36 -143 l-30
-115 28 -22 c15 -13 53 -35 83 -50 30 -16 57 -29 59 -30 11 -6 -157 -276 -222
-357 l-24 -29 -77 46 c-42 26 -80 47 -84 46 -4 0 -27 -25 -52 -55 -45 -54
-140 -134 -160 -134 -19 0 -10 -20 40 -99 28 -43 50 -80 50 -83 0 -14 -360
-208 -385 -208 -2 0 -16 24 -33 53 -51 89 -54 91 -155 67 -48 -11 -113 -24
-144 -28 l-58 -7 -9 -92 -9 -93 -199 0 -199 0 -20 46 -21 46 24 33 c21 30 226
265 324 373 38 43 43 45 115 52 296 31 618 279 778 597 85 171 122 326 124
523 2 117 5 140 23 170 11 19 33 56 47 81 48 84 128 134 163 99 5 -6 9 36 9
112 l0 121 -185 -7 c-102 -4 -194 -9 -205 -12 -16 -4 -23 2 -33 28 -15 41 -98
152 -177 236 l-59 64 39 76 c22 42 64 114 94 161 29 48 64 108 77 134 l25 48
52 -42 c29 -24 54 -44 56 -45 2 -2 -20 -36 -48 -76 l-51 -72 73 -71 c41 -38
84 -83 95 -99 19 -24 26 -27 55 -22 38 7 139 65 144 83 3 6 -32 51 -77 99 -45
48 -95 105 -111 126 l-30 37 23 6 c13 4 46 38 78 82 30 41 60 81 67 88 7 7 10
15 7 18 -3 3 4 8 15 12 12 3 19 10 16 15 -3 4 1 7 9 6 8 -1 43 -29 78 -62z
m525 -891 c-3 -10 -5 -4 -5 12 0 17 2 24 5 18 2 -7 2 -21 0 -30z m-3477 -868
c29 -43 30 -47 9 -30 -30 25 -39 37 -33 46 2 4 0 10 -6 14 -5 3 -10 11 -10 17
0 14 -1 15 40 -47z m3711 -1243 c-11 -16 -28 -35 -38 -43 -10 -8 -3 5 16 29
37 47 53 58 22 14z"/>
<path d="M6206 8313 c-6 -14 -5 -15 5 -6 7 7 10 15 7 18 -3 3 -9 -2 -12 -12z"/>
<path d="M6180 8265 c0 -8 2 -15 4 -15 2 0 6 7 10 15 3 8 1 15 -4 15 -6 0 -10
-7 -10 -15z"/>
<path d="M6151 8209 c-7 -12 -10 -23 -8 -26 3 -3 11 5 17 17 15 28 8 35 -9 9z"/>
<path d="M6016 8140 c-25 -38 -46 -75 -45 -82 0 -7 5 -2 10 11 9 23 10 24 24
5 13 -16 14 -17 9 -1 -3 9 1 28 10 42 9 13 16 31 16 40 0 8 4 15 9 15 5 0 11
9 14 20 3 11 4 20 3 20 -2 0 -24 -31 -50 -70z"/>
<path d="M6100 8118 c-16 -29 -30 -57 -30 -61 0 -5 -5 -5 -12 -1 -8 5 -9 2 -5
-9 3 -9 2 -19 -3 -22 -6 -4 -10 -1 -10 4 0 6 -5 11 -11 11 -7 0 -9 -10 -7 -25
6 -31 -8 -33 -18 -3 -6 20 -8 20 -19 5 -7 -9 -20 -17 -29 -17 -17 0 -21 10 -8
26 4 5 3 6 -3 1 -5 -4 -41 -56 -80 -116 -73 -114 -116 -178 -298 -451 -420
-629 -607 -904 -653 -964 -30 -38 -52 -71 -50 -74 5 -5 67 37 78 52 4 6 5 13
2 17 -2 4 3 12 11 19 12 10 15 10 16 -1 0 -8 4 -5 9 6 7 16 9 17 9 3 1 -9 5
-19 9 -22 5 -3 60 19 123 49 63 30 120 55 127 55 7 0 10 5 6 12 -4 7 -3 8 5 4
27 -17 53 8 92 87 22 44 44 86 49 92 5 6 66 118 136 250 69 132 138 260 152
285 14 25 43 79 65 120 48 92 93 175 167 305 68 119 221 415 215 415 -3 0 -18
-24 -35 -52z"/>
<path d="M6065 6554 c-22 -13 -116 -63 -210 -111 -298 -150 -280 -136 -413
-323 -52 -74 -126 -178 -164 -230 -38 -52 -156 -216 -262 -365 -107 -148 -215
-297 -239 -330 -25 -33 -43 -64 -40 -69 4 -5 1 -6 -4 -3 -15 9 -43 -36 -43
-68 0 -14 -4 -25 -10 -25 -5 0 -7 8 -3 18 5 14 3 13 -10 -3 -11 -15 -12 -22
-4 -27 8 -5 6 -8 -5 -8 -18 0 -22 -10 -19 -40 2 -13 1 -13 -8 0 -5 8 -11 12
-13 10 -26 -41 -29 -53 -16 -62 10 -8 9 -9 -4 -5 -23 8 -69 -53 -61 -82 7 -26
-41 -83 -65 -79 -8 2 -17 -3 -19 -9 -3 -7 0 -13 7 -13 6 0 8 5 4 12 -4 6 -3 8
4 5 17 -11 -8 -65 -50 -107 -25 -26 -33 -41 -26 -48 12 -12 1 -72 -13 -72 -5
0 -9 -6 -9 -12 1 -7 12 0 25 16 13 17 22 33 19 38 -3 4 3 5 12 1 13 -5 16 -3
11 10 -3 9 -2 16 3 14 5 -1 30 21 55 48 125 137 455 519 652 755 275 329 444
530 537 640 92 108 198 244 266 339 29 41 77 103 106 138 70 82 71 86 9 47z
m-1611 -1929 c3 -8 1 -15 -4 -15 -6 0 -10 7 -10 15 0 8 2 15 4 15 2 0 6 -7 10
-15z"/>
<path d="M4860 6311 c-69 -4 -125 -12 -140 -20 -48 -27 -325 -194 -333 -201
-5 -4 109 -8 252 -9 246 -2 260 -1 254 16 -11 31 -14 34 -29 23 -7 -7 -19 -10
-26 -7 -8 4 -7 6 5 6 10 1 17 9 17 21 0 11 5 20 10 20 6 0 10 9 10 20 0 11 5
20 10 20 6 0 10 7 10 15 0 8 5 15 10 15 6 0 10 6 10 14 0 7 14 16 30 20 35 7
39 23 8 29 -13 2 24 5 82 5 58 1 112 -3 120 -8 13 -8 12 -10 -2 -10 -22 0 -22
5 1 -57 23 -63 18 -101 -15 -109 -13 -3 -24 -10 -24 -15 0 -5 -11 -9 -24 -9
-14 0 -28 -4 -31 -10 -3 -5 3 -10 13 -10 22 0 254 112 354 172 38 22 85 46
106 54 33 12 7 13 -213 13 -137 0 -272 1 -300 4 -27 2 -102 1 -165 -2z m-275
-140 c3 -5 0 -13 -5 -16 -7 -4 -8 -19 -5 -36 5 -21 3 -29 -7 -29 -16 0 -49 36
-41 44 4 3 1 6 -5 6 -7 0 -12 -8 -12 -17 0 -15 -2 -16 -10 -3 -7 11 -4 19 12
32 13 9 26 14 30 12 3 -2 9 0 13 6 8 13 22 13 30 1z m101 -66 c29 -15 29 -15
-26 -15 -51 1 -53 2 -36 15 24 19 27 18 62 0z"/>
<path d="M4482 4790 c-7 -11 -8 -20 -4 -20 5 0 17 9 27 20 14 15 15 20 4 20
-8 0 -20 -9 -27 -20z"/>
<path d="M4416 4702 c-3 -5 1 -9 9 -9 8 0 12 4 9 9 -3 4 -7 8 -9 8 -2 0 -6 -4
-9 -8z"/>
<path d="M4304 4552 c-42 -49 -65 -82 -103 -144 -38 -64 -15 -42 33 31 24 38
61 86 80 107 30 33 44 55 34 54 -2 -1 -21 -22 -44 -48z"/>
<path d="M4271 4393 c-7 -8 -11 -16 -8 -19 2 -2 10 2 17 11 17 20 9 27 -9 8z"/>
<path d="M4146 4325 c-15 -19 -24 -40 -20 -47 4 -6 3 -8 -4 -4 -16 10 -162
-177 -149 -190 3 -3 11 5 18 18 6 12 32 47 57 76 36 42 49 52 67 48 17 -4 27
3 49 36 20 30 24 44 16 52 -9 8 -11 6 -8 -8 1 -10 -3 -21 -9 -23 -19 -7 -16
33 3 52 9 9 14 18 12 21 -3 2 -17 -11 -32 -31z"/>
<path d="M4235 4349 c-11 -17 1 -21 15 -4 8 9 8 15 2 15 -6 0 -14 -5 -17 -11z"/>
<path d="M4190 4321 c0 -6 5 -13 10 -16 6 -3 10 1 10 9 0 9 -4 16 -10 16 -5 0
-10 -4 -10 -9z"/>
<path d="M3911 3994 c-19 -25 -27 -44 -17 -44 2 0 13 16 25 35 24 42 21 45 -8
9z"/>
<path d="M4075 7830 c-3 -5 -2 -10 4 -10 5 0 13 5 16 10 3 6 2 10 -4 10 -5 0
-13 -4 -16 -10z"/>
<path d="M4564 7341 c-67 -33 -124 -72 -124 -86 0 -14 54 8 102 42 32 22 71
46 88 53 27 11 41 30 22 30 -4 0 -44 -17 -88 -39z"/>
<path d="M4100 6870 c-6 -11 -8 -20 -6 -20 3 0 10 9 16 20 6 11 8 20 6 20 -3
0 -10 -9 -16 -20z"/>
<path d="M3630 6807 c0 -2 10 -25 23 -53 13 -27 34 -74 47 -104 l24 -56 23 65
c18 52 20 68 10 77 -14 13 -127 76 -127 71z"/>
<path d="M5430 5024 c-30 -7 -72 -15 -92 -18 -34 -4 -87 -33 -88 -48 0 -3 -16
-25 -35 -48 -43 -51 -45 -67 -5 -44 24 15 55 51 100 115 3 4 41 15 85 24 44 9
87 21 95 26 20 11 7 10 -60 -7z"/>
<path d="M3843 8790 c-13 -5 -23 -11 -23 -14 0 -7 40 6 46 15 6 10 6 10 -23
-1z"/>
<path d="M2271 8681 c-15 -10 -7 -31 12 -30 9 0 8 2 -1 6 -6 2 -9 9 -6 15 3 5
15 2 27 -9 l22 -18 -19 23 c-11 12 -20 22 -20 22 -1 0 -7 -4 -15 -9z"/>
<path d="M2230 8650 c0 -5 5 -10 10 -10 6 0 10 5 10 10 0 6 -4 10 -10 10 -5 0
-10 -4 -10 -10z"/>
<path d="M7890 8598 l-35 -41 33 17 c17 9 32 21 32 27 0 8 5 7 15 -1 19 -15
47 4 38 26 -10 26 -47 13 -83 -28z"/>
<path d="M4885 8609 c-351 -34 -784 -195 -1055 -392 -63 -47 -114 -89 -113
-95 2 -6 -3 -9 -10 -6 -7 2 -24 -7 -37 -21 -13 -14 -18 -25 -12 -25 7 0 12 4
12 9 0 5 11 11 25 13 13 3 22 1 19 -3 -2 -5 4 -14 16 -21 17 -11 20 -23 20
-75 0 -49 4 -64 18 -72 16 -9 16 -10 -2 -17 -11 -4 -21 -2 -26 5 -5 9 -9 6
-13 -11 -4 -12 -18 -36 -33 -51 -48 -52 -16 -40 50 18 36 31 63 62 59 68 -3 6
-1 7 5 3 6 -3 49 24 95 62 80 63 229 152 342 202 232 103 615 190 838 190 l57
0 0 115 0 115 -87 -1 c-49 -1 -124 -5 -168 -10z"/>
<path d="M2131 8523 l-23 -19 21 -24 c13 -16 23 -21 28 -14 5 6 16 15 26 20
16 9 16 12 -6 32 -23 22 -25 22 -46 5z"/>
<path d="M8049 8470 c-30 -34 -53 -66 -51 -72 1 -5 -3 -16 -9 -24 -9 -11 -9
-14 0 -14 7 0 0 -11 -14 -25 -41 -42 -28 -41 18 1 76 70 149 152 151 171 0 11
-7 19 -20 21 -16 2 -36 -13 -75 -58z"/>
<path d="M7920 8268 c-12 -22 -12 -22 6 -6 10 10 15 20 12 24 -4 3 -12 -5 -18
-18z"/>
<path d="M7875 8229 c-4 -6 -5 -12 -2 -15 2 -3 7 2 10 11 7 17 1 20 -8 4z"/>
<path d="M7829 8183 c-13 -17 -13 -17 6 -3 11 8 22 16 24 17 2 2 0 3 -6 3 -6
0 -17 -8 -24 -17z"/>
<path d="M6473 8163 c-3 -10 -14 -39 -24 -65 -10 -26 -15 -50 -10 -52 8 -5 39
58 56 112 8 26 -12 31 -22 5z"/>
<path d="M7745 8118 l-20 -21 23 12 c12 6 22 16 22 21 0 13 -2 12 -25 -12z"/>
<path d="M6415 8029 c-4 -6 -5 -12 -2 -15 2 -3 7 2 10 11 7 17 1 20 -8 4z"/>
<path d="M3645 7801 c3 -5 1 -12 -5 -16 -5 -3 -10 -10 -10 -16 0 -5 9 0 20 11
24 24 25 30 4 30 -8 0 -13 -4 -9 -9z"/>
<path d="M3170 7151 c0 -3 -15 -7 -32 -8 -75 -4 -151 -20 -162 -34 -6 -9 -18
-18 -28 -21 -14 -6 -15 -2 -7 24 14 51 -6 19 -39 -62 -43 -107 -107 -321 -125
-420 -9 -47 -21 -139 -27 -205 -7 -66 -15 -137 -20 -157 l-8 -38 122 0 c66 0
126 4 131 8 6 4 11 50 13 102 7 209 84 556 157 700 45 89 54 117 39 117 -8 0
-14 -3 -14 -6z"/>
<path d="M8123 6563 c48 -2 126 -2 175 0 48 1 8 3 -88 3 -96 0 -136 -2 -87 -3z"/>
<path d="M8453 6433 c15 -2 37 -2 50 0 12 2 0 4 -28 4 -27 0 -38 -2 -22 -4z"/>
<path d="M8318 6373 c12 -2 30 -2 40 0 9 3 -1 5 -23 4 -22 0 -30 -2 -17 -4z"/>
<path d="M8195 6233 c-73 -3 -96 -7 -85 -14 12 -9 10 -10 -7 -6 -13 3 -23 1
-23 -4 0 -5 -6 -9 -13 -9 -8 0 -14 -6 -14 -14 0 -12 59 -13 391 -9 215 3 393
7 395 9 2 2 -110 5 -250 6 -140 1 -235 3 -211 5 52 5 56 22 5 25 -21 1 16 5
82 8 l120 6 -145 0 c-80 0 -190 -2 -245 -3z"/>
<path d="M1413 6033 c9 -2 23 -2 30 0 6 3 -1 5 -18 5 -16 0 -22 -2 -12 -5z"/>
<path d="M8095 6033 c-63 -7 -66 -23 -4 -25 35 -1 43 -3 22 -5 -60 -8 -34 -23
37 -23 63 0 91 11 58 23 -7 2 -10 8 -6 12 4 4 15 2 24 -5 13 -11 17 -11 24 -1
4 8 13 10 21 6 7 -5 42 -7 78 -6 94 4 69 -9 -36 -18 -66 -6 -19 -9 192 -9 174
-1 274 2 265 7 -8 6 -18 7 -22 5 -4 -3 -8 2 -8 10 0 19 29 21 275 17 121 -2
166 1 155 8 -14 10 -978 13 -1075 4z m82 -39 c-3 -3 -12 -4 -19 -1 -8 3 -5 6
6 6 11 1 17 -2 13 -5z"/>
<path d="M8050 5990 c0 -5 5 -10 11 -10 5 0 7 5 4 10 -3 6 -8 10 -11 10 -2 0
-4 -4 -4 -10z"/>
<path d="M8338 5833 c34 -2 90 -2 125 0 34 2 6 3 -63 3 -69 0 -97 -1 -62 -3z"/>
<path d="M8368 5773 c12 -2 30 -2 40 0 9 3 -1 5 -23 4 -22 0 -30 -2 -17 -4z"/>
<path d="M8448 5773 c12 -2 30 -2 40 0 9 3 -1 5 -23 4 -22 0 -30 -2 -17 -4z"/>
<path d="M6809 4543 c-13 -16 -12 -17 4 -4 9 7 17 15 17 17 0 8 -8 3 -21 -13z"/>
<path d="M6662 4438 c4 -10 -7 -20 -35 -32 -24 -9 -47 -28 -54 -41 -16 -35 0
-31 39 9 18 18 42 35 53 37 23 5 27 30 6 37 -9 3 -12 0 -9 -10z"/>
<path d="M7515 4322 c-32 -34 -31 -42 5 -77 17 -16 30 -25 30 -20 0 5 7 0 15
-11 12 -16 14 -16 15 -3 0 26 51 31 76 8 25 -24 53 -27 34 -4 -7 8 -15 13 -19
11 -3 -1 -26 21 -51 49 -66 77 -74 80 -105 47z"/>
<path d="M2748 4320 c12 -5 22 -15 22 -21 0 -7 3 -9 6 -6 10 10 -16 37 -35 36
-11 0 -9 -3 7 -9z"/>
<path d="M7337 4174 c-25 -25 3 -56 373 -406 250 -236 279 -260 314 -253 16 3
32 7 34 10 13 12 -119 146 -378 385 -68 63 -161 150 -206 193 -45 43 -84 75
-87 70 -2 -4 -7 -21 -11 -36 -4 -15 -11 -25 -16 -22 -6 4 -7 11 -4 17 4 7 2 8
-4 4 -7 -4 -12 -1 -12 9 0 9 4 14 9 10 5 -3 13 0 17 6 4 7 3 9 -4 5 -5 -3 -12
-1 -14 5 -2 5 -7 7 -11 3z"/>
<path d="M7720 4176 c0 -2 18 -26 40 -52 22 -27 38 -55 35 -63 -4 -9 0 -11 12
-7 16 5 16 5 0 -8 -11 -8 -25 -12 -33 -9 -8 3 -14 -1 -14 -8 0 -7 3 -9 7 -6 3
4 13 -2 20 -13 8 -11 19 -18 24 -14 5 3 8 0 7 -8 -2 -9 8 -13 32 -13 19 -1 46
-6 60 -12 14 -6 27 -9 28 -8 2 2 -46 53 -107 115 -61 61 -111 109 -111 106z"/>
<path d="M2785 4093 c-91 -85 -239 -230 -291 -284 -28 -30 -101 -103 -163
-162 l-111 -108 15 -30 c9 -16 20 -29 26 -29 5 0 47 37 93 83 46 45 138 134
205 197 66 63 121 120 121 128 0 7 5 10 12 6 7 -5 9 -2 5 8 -3 9 0 15 7 14 12
-1 126 97 126 109 0 3 -4 3 -10 0 -5 -3 -10 -1 -10 5 0 7 8 9 21 5 16 -5 20
-3 17 12 -2 11 2 17 10 15 8 -1 11 2 7 8 -3 5 -13 10 -22 10 -11 0 -14 8 -11
30 3 17 4 30 4 30 -1 0 -23 -21 -51 -47z m-120 -223 c-3 -5 -11 -10 -16 -10
-6 0 -7 5 -4 10 3 6 11 10 16 10 6 0 7 -4 4 -10z"/>
<path d="M2920 4129 c0 -5 5 -7 10 -4 6 3 10 8 10 11 0 2 -4 4 -10 4 -5 0 -10
-5 -10 -11z"/>
<path d="M4590 4126 c0 -11 -65 -76 -105 -104 -60 -43 -77 -52 -102 -53 l-28
-1 25 -8 c56 -18 68 -12 169 85 94 89 98 95 70 95 -18 0 -29 -5 -29 -14z"/>
<path d="M7740 4049 c0 -5 5 -7 10 -4 6 3 10 8 10 11 0 2 -4 4 -10 4 -5 0 -10
-5 -10 -11z"/>
<path d="M7087 3872 c-10 -10 -17 -26 -17 -34 0 -15 482 -502 515 -521 12 -6
23 -2 41 17 l25 25 -263 265 c-145 147 -268 266 -274 266 -6 0 -18 -8 -27 -18z"/>
<path d="M3020 3757 c-69 -67 -192 -185 -273 -262 -83 -78 -150 -150 -152
-162 -3 -16 0 -20 11 -16 8 3 14 0 14 -6 0 -26 36 -6 118 66 146 128 401 390
315 322 -16 -13 -17 -12 -4 3 7 10 17 15 22 13 4 -3 37 23 73 57 65 63 65 63
46 86 -10 12 -24 22 -32 22 -7 0 -69 -55 -138 -123z"/>
<path d="M3119 2846 c-113 -33 -231 -125 -272 -213 -18 -40 -22 -66 -22 -153
0 -97 2 -110 31 -170 61 -128 192 -219 330 -228 92 -6 148 13 256 84 100 67
97 63 76 75 -9 5 -41 29 -72 55 -53 43 -57 44 -73 28 -30 -29 -96 -54 -148
-54 -112 0 -193 77 -202 191 -6 80 22 140 84 183 79 55 184 44 261 -28 23 -21
24 -21 34 -1 6 11 34 43 62 71 l52 50 -62 43 c-34 23 -81 49 -105 58 -59 21
-173 25 -230 9z"/>
<path d="M4670 2838 c-185 -65 -291 -195 -292 -359 -1 -128 67 -250 181 -326
88 -60 146 -76 245 -71 68 3 91 10 146 39 145 76 252 227 254 358 2 135 -93
270 -240 342 -90 44 -198 51 -294 17z m198 -173 c104 -44 151 -166 103 -271
-72 -158 -283 -165 -362 -12 -57 110 -16 236 91 282 46 20 121 20 168 1z"/>
<path d="M1454 2834 c3 -9 6 -49 6 -90 l0 -74 113 0 112 0 -3 -295 -3 -295
100 0 c94 0 99 1 105 23 3 12 6 145 6 295 l0 272 105 0 105 0 0 90 0 90 -326
0 c-293 0 -326 -2 -320 -16z"/>
<path d="M2170 2465 l1 -385 294 0 295 0 0 95 0 95 -195 0 -195 0 0 54 0 54
170 -5 170 -6 0 85 c0 69 -3 87 -16 92 -9 3 -85 6 -170 6 l-154 0 0 60 0 60
195 0 195 0 0 90 0 90 -295 0 -295 0 0 -385z"/>
<path d="M3590 2465 l0 -385 100 0 99 0 -5 213 -5 212 42 -45 c75 -80 233
-274 268 -327 l33 -53 86 0 85 0 -6 257 c-4 141 -7 314 -7 385 l0 128 -95 0
-95 0 -2 -206 -3 -206 -77 98 c-42 55 -114 147 -160 206 l-83 107 -87 0 -88 1
0 -385z"/>
<path d="M8332 2839 c-37 -11 -33 -34 4 -25 18 5 26 2 31 -11 4 -10 13 -24 20
-31 7 -7 13 -23 13 -34 0 -14 5 -18 16 -14 8 3 12 2 9 -4 -3 -6 -23 -10 -43
-10 -43 0 -68 -13 -58 -29 4 -6 2 -10 -5 -9 -6 2 -14 -4 -16 -12 -3 -9 -1 -11
4 -5 4 6 17 12 28 14 38 8 195 8 190 0 -3 -4 4 -10 15 -14 36 -11 88 -84 101
-141 10 -46 10 -60 -5 -99 -25 -64 -62 -104 -121 -131 -59 -28 -87 -29 -146
-9 -63 23 -104 58 -133 117 -29 59 -32 95 -10 153 8 22 16 45 17 51 2 7 9 20
17 30 8 10 10 15 5 12 -13 -8 -39 11 -48 35 -3 9 -13 17 -22 17 -8 0 -15 7
-15 15 0 8 -4 15 -10 15 -5 0 -10 8 -10 17 0 30 -59 -37 -93 -106 -27 -56 -31
-74 -31 -150 -1 -120 21 -177 103 -263 46 -50 83 -78 137 -104 70 -35 76 -36
161 -32 75 4 98 9 155 38 135 67 203 154 228 289 6 35 8 86 5 112 -15 111
-106 236 -208 287 -78 39 -208 53 -285 31z m153 -140 c-4 -5 -12 -9 -18 -8 -9
0 -8 2 1 6 6 2 9 10 6 15 -4 7 -2 8 5 4 6 -4 9 -12 6 -17z"/>
<path d="M7753 2823 c9 -2 23 -2 30 0 6 3 -1 5 -18 5 -16 0 -22 -2 -12 -5z"/>
<path d="M7808 2626 c-13 -9 -18 -27 -18 -58 0 -30 -7 -54 -19 -69 -19 -23
-23 -24 -190 -26 -168 -1 -172 -2 -206 -27 -23 -18 -35 -22 -38 -13 -7 16 -9
-30 -11 -200 l-1 -143 40 1 c22 0 57 3 78 7 l37 7 4 92 c2 51 7 97 11 103 3 5
34 10 69 10 l62 0 79 -116 79 -116 51 6 c27 3 76 6 108 6 l59 0 -39 48 c-22
26 -61 78 -87 116 -45 65 -46 69 -31 92 8 13 20 24 25 24 13 0 51 57 53 80 1
11 5 20 9 20 4 0 8 12 8 26 0 14 -4 23 -10 19 -5 -3 -19 14 -31 37 -21 42 -57
88 -68 88 -3 0 -14 -7 -23 -14z"/>
<path d="M5744 2529 c27 -4 53 -12 58 -17 6 -6 8 -37 6 -71 -2 -44 0 -61 10
-61 8 0 12 23 12 80 l0 80 -67 -1 -68 -1 49 -9z"/>
<path d="M6848 2346 c-5 -27 -8 -95 -8 -152 0 -118 -6 -111 93 -98 43 6 45 8
35 27 -6 11 -12 39 -13 61 -1 23 -5 60 -10 83 -7 39 -10 42 -46 48 -35 6 -38
9 -41 43 -3 36 -3 36 -10 -12z"/>
<path d="M6023 2362 c-6 -4 -13 -64 -16 -139 l-6 -133 279 0 279 0 3 90 3 90
-197 0 c-147 0 -199 3 -205 13 -4 6 -21 18 -38 26 -16 7 -37 17 -46 21 -10 5
-21 4 -27 -2 -8 -8 -9 -5 -6 9 6 23 -6 36 -23 25z"/>
<path d="M5495 2250 c-22 -4 -33 -8 -23 -9 23 -2 11 -41 -13 -41 -12 0 -19 -9
-21 -27 -2 -23 -8 -29 -36 -31 -24 -2 -34 1 -39 15 -4 10 -14 25 -23 33 -9 8
-22 24 -28 35 -9 16 -11 5 -12 -62 l0 -81 163 -1 c89 -1 176 3 192 8 l30 9
-28 1 c-32 1 -57 21 -57 45 0 9 -8 16 -20 16 -13 0 -20 7 -20 20 0 11 5 20 10
20 6 0 10 9 10 20 0 12 7 20 18 20 9 0 24 5 32 10 18 11 -71 11 -135 0z"/>
<path d="M5755 2250 c17 -4 47 -8 68 -9 34 -1 37 -3 37 -30 0 -35 -9 -61 -21
-61 -10 0 -59 -45 -59 -54 0 -3 23 -6 50 -6 l50 0 0 85 0 85 -77 -2 c-55 -1
-69 -3 -48 -8z"/>
<path d="M5380 2180 c0 -11 5 -20 10 -20 6 0 10 9 10 20 0 11 -4 20 -10 20 -5
0 -10 -9 -10 -20z"/>
<path d="M4485 1807 c-2 -6 -8 -25 -13 -42 -12 -42 -41 -39 -71 8 -14 20 -32
37 -43 37 -16 0 -18 -9 -18 -74 0 -82 6 -106 25 -106 9 0 16 18 21 45 3 25 9
45 13 45 3 0 17 -16 30 -36 26 -38 25 -38 58 13 10 15 12 12 12 -24 1 -24 6
-43 11 -43 6 0 10 36 10 89 0 71 -3 90 -15 95 -9 3 -17 0 -20 -7z"/>
<path d="M3416 1789 c-36 -29 -34 -57 7 -74 39 -16 61 -40 52 -55 -8 -13 -52
-13 -60 0 -9 15 -25 12 -25 -5 0 -31 83 -48 108 -23 7 7 12 27 12 45 0 28 -5
35 -35 47 -44 19 -47 46 -6 46 37 0 48 15 22 29 -29 16 -45 14 -75 -10z"/>
<path d="M5025 1797 c-3 -7 -6 -32 -7 -57 l-3 -45 -40 53 c-22 29 -47 52 -58
52 -16 0 -18 -8 -15 -82 3 -70 6 -83 21 -86 15 -3 17 5 17 55 l1 58 34 -40
c19 -22 42 -48 51 -58 23 -27 31 -12 39 74 7 72 6 76 -15 82 -12 3 -23 0 -25
-6z"/>
<path d="M5200 1805 c0 -8 42 -97 59 -124 15 -23 15 -23 42 30 16 30 28 64 29
76 0 35 -29 17 -50 -31 l-17 -41 -21 42 c-19 37 -42 64 -42 48z"/>
<path d="M5814 1795 c3 -9 6 -52 6 -96 0 -60 3 -79 14 -79 8 0 16 16 20 39 7
43 34 58 69 40 15 -9 18 -18 14 -45 -5 -29 -3 -34 14 -34 17 0 19 8 19 89 0
72 -3 90 -16 95 -24 9 -24 9 -24 -29 0 -30 -3 -35 -25 -36 -14 -1 -31 -2 -37
-3 -7 -1 -15 14 -18 34 -3 24 -11 36 -24 38 -14 3 -17 0 -12 -13z"/>
<path d="M6160 1720 c0 -73 3 -90 15 -90 9 0 15 9 15 23 0 12 3 52 7 90 6 64
5 67 -16 67 -20 0 -21 -5 -21 -90z"/>
<path d="M6390 1720 c0 -69 3 -90 14 -90 8 0 17 19 22 51 l9 51 24 -38 c12
-22 27 -45 31 -53 4 -8 15 -11 24 -8 13 5 16 23 16 92 0 80 -1 85 -21 85 -19
0 -21 -5 -17 -50 1 -28 1 -50 -2 -50 -3 0 -20 23 -38 50 -49 76 -62 68 -62
-40z"/>
<path d="M6724 1776 c-43 -43 -44 -75 -4 -114 44 -44 119 -54 142 -18 15 22 8
75 -10 85 -29 16 -46 -2 -39 -43 5 -31 3 -36 -14 -36 -25 0 -69 43 -69 67 0
39 45 68 91 58 22 -5 29 -3 29 8 0 18 -21 27 -62 27 -21 0 -40 -10 -64 -34z"/>
<path d="M3700 1716 l0 -83 31 -7 c55 -11 89 -7 89 9 0 11 -12 15 -45 15 -36
0 -45 3 -45 18 0 25 12 40 40 51 24 9 24 10 -7 10 -26 1 -33 5 -33 20 0 16 8
20 42 23 23 2 43 9 46 16 3 9 -13 12 -57 12 l-61 0 0 -84z"/>
<path d="M4021 1774 c-31 -39 -28 -89 8 -125 31 -30 59 -36 92 -19 23 13 26
60 4 60 -8 0 -15 -6 -15 -14 0 -19 -28 -28 -50 -16 -26 14 -34 46 -19 82 12
28 15 30 54 24 23 -3 45 -2 49 1 14 14 -19 33 -59 33 -35 0 -48 -5 -64 -26z"/>
<path d="M4690 1715 c0 -69 3 -85 15 -85 12 0 15 14 15 69 0 38 3 76 6 85 4
12 0 16 -15 16 -20 0 -21 -5 -21 -85z"/>
<path d="M6923 1783 c9 -2 23 -2 30 0 6 3 -1 5 -18 5 -16 0 -22 -2 -12 -5z"/>
<path d="M6920 1685 c0 -53 1 -55 27 -55 l27 0 -22 21 c-18 16 -21 27 -16 55
4 22 2 34 -5 34 -7 0 -11 -21 -11 -55z"/>
</g>
</svg>
